<svg xmlns="http://www.w3.org/2000/svg" width="40" viewBox="0 0 30 30.000001" height="40" version="1.0"><defs><clipPath id="a"><path d="M.484375 0h29.03125v29.03125H.484375Zm0 0"/></clipPath></defs><g clip-path="url(#a)"><path d="M.484375 3.628906C.484375 1.625 2.109375 0 4.113281 0h21.773438c2.003906 0 3.628906 1.625 3.628906 3.628906v21.773438c0 2.003906-1.625 3.628906-3.628906 3.628906H4.113281c-2.003906 0-3.628906-1.625-3.628906-3.628906V3.628906"/></g><path d="M11.532504 9.935876H4.618442v1.714844h2.601562v7.488281h1.710938V11.65072h2.601562Zm0 0" fill="#fff"/><path d="M18.02854 13.389001c0-1.910156-.871094-3.453125-3.21875-3.453125h-3.96875v9.203125h1.726562v-2.289062h2.242188c.207031 0 .402343-.011719.585937-.035157l.828125 2.324219h1.804688l-1.042969-2.945312c.757812-.632813 1.042969-1.65625 1.042969-2.804688Zm-5.460938 1.734375V11.65072h2.242188c.851562 0 1.082031.289062 1.160156.378906.21875.277344.335937.761719.335937 1.359375 0 .632812-.117187 1.113281-.324219 1.367188-.195312.253906-.585937.367187-1.171874.367187Zm0 0" fill="#fff"/><path d="M24.081875 16.572595c-.484375.566406-1.199219.910156-2.039063.910156-1.621093 0-2.769531-1.324219-2.769531-2.945312 0-1.621094 1.148438-2.945313 2.769531-2.945313.839844 0 1.554688.347656 2.039063.910156l1.296875-1.289062c-.851562-.851563-2.035156-1.378907-3.335938-1.378907-2.597656 0-4.703124 2.105469-4.703124 4.703126 0 2.601562 2.105468 4.707031 4.703124 4.707031 1.300782 0 2.484376-.53125 3.335938-1.382813Zm0 0" fill="#fff"/></svg>